<svg xmlns="http://www.w3.org/2000/svg" width="32" height="32" viewBox="0 0 32 32"><path d="M19.73 5a5 5 0 0 1 9.77 1.5v2.66l2.3 2.6c.43.46.11 1.2-.5 1.24H17.7a.75.75 0 0 1-.5-1.25l2.3-2.6V6.5a5 5 0 0 1 .23-1.5m2.9 10.56c.41.57 1.1.94 1.87.94a2.2 2.2 0 0 0 2.25-2h-4.5q.05.6.39 1.06M6.5 7H18v-.5q0-.78.17-1.5H6.5A4.5 4.5 0 0 0 2 9.5v13A4.5 4.5 0 0 0 6.5 27h19a4.5 4.5 0 0 0 4.5-4.5v-8h-1.75v.1q-.05.57-.25 1.07v6.83a2.5 2.5 0 0 1-2.5 2.5h-19A2.5 2.5 0 0 1 4 22.5v-9.83l11.53 6.21a1 1 0 0 0 .94 0l4.84-2.6a3.5 3.5 0 0 1-.55-1.68v-.1h-.37L16 16.86 4 10.4v-.9A2.5 2.5 0 0 1 6.5 7"/></svg>