<svg xmlns="http://www.w3.org/2000/svg" width="20" height="20" viewBox="0 0 20 20"><path d="m9.45 2.29-1-.4a2.4 2.4 0 0 0-3.1 1.3l-.42.97a1.5 1.5 0 0 1-.77.77l-.98.43a2.4 2.4 0 0 0-1.28 3.1l.38 1c.14.34.14.74 0 1.09l-.38.99a2.4 2.4 0 0 0 1.28 3.1l.98.43q.53.23.77.77l.43.98a2.4 2.4 0 0 0 3.1 1.28l.99-.39a1.5 1.5 0 0 1 1.1 0l.99.4c1.2.47 2.58-.1 3.1-1.3l.42-.97q.24-.54.78-.77l.98-.43a2.4 2.4 0 0 0 1.28-3.1l-.39-.99a1.5 1.5 0 0 1 0-1.1l.39-.99a2.4 2.4 0 0 0-1.28-3.1l-.98-.43a1.5 1.5 0 0 1-.78-.77l-.42-.98a2.4 2.4 0 0 0-3.1-1.28l-1 .39a1.5 1.5 0 0 1-1.1 0m1.46.93 1-.4c.7-.27 1.5.06 1.81.76l.43.98a2.5 2.5 0 0 0 1.3 1.3l.97.42c.7.3 1.03 1.1.75 1.82l-.39.98a2.5 2.5 0 0 0 0 1.84l.39.99c.28.7-.05 1.51-.75 1.81l-.98.43a2.5 2.5 0 0 0-1.3 1.3l-.42.97c-.3.7-1.1 1.03-1.82.75l-.99-.39a2.5 2.5 0 0 0-1.83 0l-.99.4a1.4 1.4 0 0 1-1.82-.76l-.42-.98a2.5 2.5 0 0 0-1.3-1.3l-.97-.42c-.7-.3-1.03-1.1-.75-1.81l.39-1a2.5 2.5 0 0 0 0-1.83l-.4-.98c-.27-.72.06-1.52.76-1.82l.97-.43a2.5 2.5 0 0 0 1.3-1.3l.42-.97c.3-.7 1.11-1.03 1.82-.75l1 .39a2.5 2.5 0 0 0 1.82 0M10 5a2 2 0 1 0 0 4 2 2 0 0 0 0-4m2.5 5h-5c-.83 0-1.5.67-1.5 1.5 0 1.11.45 2 1.2 2.61S8.95 15 10 15s2.04-.3 2.78-.89c.76-.6 1.22-1.5 1.22-2.61 0-.83-.68-1.5-1.5-1.5"/></svg>